<?xml version="1.0" encoding="UTF-8" standalone="no"?>
<svg
   xmlns:dc="http://purl.org/dc/elements/1.1/"
   xmlns:cc="http://creativecommons.org/ns#"
   xmlns:rdf="http://www.w3.org/1999/02/22-rdf-syntax-ns#"
   xmlns:svg="http://www.w3.org/2000/svg"
   xmlns="http://www.w3.org/2000/svg"
   xmlns:sodipodi="http://sodipodi.sourceforge.net/DTD/sodipodi-0.dtd"
   xmlns:inkscape="http://www.inkscape.org/namespaces/inkscape"
   width="300"
   height="300"
   viewBox="-60 -40 120 80"
   id="svg2864"
   version="1.1"
   inkscape:version="0.47 r22583"
   sodipodi:docname="Star_of_Morocco.svg">
  <metadata
     id="metadata2884">
    <rdf:RDF>
      <cc:Work
         rdf:about="">
        <dc:format>image/svg+xml</dc:format>
        <dc:type
           rdf:resource="http://purl.org/dc/dcmitype/StillImage" />
      </cc:Work>
    </rdf:RDF>
  </metadata>
  <defs
     id="defs2882" />
  <sodipodi:namedview
     pagecolor="#ffffff"
     bordercolor="#666666"
     borderopacity="1"
     objecttolerance="10"
     gridtolerance="10"
     guidetolerance="10"
     inkscape:pageopacity="0"
     inkscape:pageshadow="2"
     inkscape:window-width="1280"
     inkscape:window-height="738"
     id="namedview2880"
     showgrid="false"
     inkscape:zoom="0.78666667"
     inkscape:cx="360.38136"
     inkscape:cy="150"
     inkscape:window-x="-8"
     inkscape:window-y="-8"
     inkscape:window-maximized="1"
     inkscape:current-layer="svg2864" />
  <desc
     id="desc2866">Star of Morocco</desc>
  <g
     style="fill:#006233;stroke:#000000;stroke-opacity:1"
     transform="matrix(1.3032084,0,0,1.3701621,-250.21117,-169.12234)"
     id="g2868">
    <path
       d="m 181.25,113.1875 -34.78125,0.0312 39.59375,28.75 5.9375,-4.3125 -24,-17.4375 10.96875,-0.0312 2.28125,-7 z"
       id="path2870"
       style="stroke:#000000;stroke-opacity:1" />
    <path
       d="m 202.76559,113.19883 -10.77772,-33.069279 -15.10773,46.540129 5.93622,4.31427 9.16764,-28.21384 3.41925,10.42224 7.36234,0.006 z"
       id="path2872"
       style="stroke:#000000;stroke-opacity:1" />
    <path
       d="m 209.40356,133.66496 28.12026,-20.46919 -48.93084,0.0134 -2.26872,6.97886 29.66591,3.9e-4 -8.85553,6.47255 2.26892,7.004 z"
       id="path2874"
       style="stroke:#000000;stroke-opacity:1" />
    <path
       d="m 191.99045,146.30222 28.15699,20.41863 -15.13319,-46.53186 -7.33837,-0.001 9.1669,28.21408 -8.89227,-6.42199 -5.96006,4.32223 z"
       id="path2876"
       style="stroke:#000000;stroke-opacity:1" />
    <path
       d="m 174.59078,133.64658 -10.71828,33.08859 39.57802,-28.77166 -2.26665,-6.97954 -24.00046,17.43687 3.35982,-10.44155 -5.95245,-4.33271 z"
       id="path2878"
       style="stroke:#000000;stroke-opacity:1" />
  </g>
</svg>
